<svg width="384" height="384" viewBox="0 0 384 384" fill="none" xmlns="http://www.w3.org/2000/svg">
<path d="M96 336C82.752 336 72 346.752 72 360C72 373.248 82.752 384 96 384C109.248 384 120 373.248 120 360C120 346.752 109.248 336 96 336ZM96 368C91.589 368 88 364.411 88 360C88 355.589 91.589 352 96 352C100.411 352 104 355.589 104 360C104 364.411 100.411 368 96 368ZM320.5 336C307.252 336 296.5 346.752 296.5 360C296.5 373.248 307.252 384 320.5 384C333.748 384 344.5 373.248 344.5 360C344.5 346.752 333.748 336 320.5 336ZM320.5 368C316.089 368 312.5 364.411 312.5 360C312.5 355.589 316.089 352 320.5 352C324.911 352 328.5 355.589 328.5 360C328.5 364.411 324.911 368 320.5 368ZM384 64L59.177 31.646C57.549 24.674 54.808 16.986 47.339 10.979C38.025 3.489 22.982 0 0 0V16.001C18.614 16.001 31.167 18.507 37.312 23.448C41.77 27.033 42.956 31.871 44.477 39.437L44.453 39.441L86.505 273.079C88.918 287.501 93.699 298.288 99.796 306.065C107.043 315.312 116.533 320 128 320H368V304H128C123.273 304 108.864 304.123 102.251 270.245L96.822 240.085L368 192L384 64ZM354.59 178.348L93.989 224.338L62.257 48.038L366.126 78.646L354.59 178.348Z" fill="white"/>
</svg>
