<svg width="625" height="275" viewBox="0 0 625 275" fill="none" xmlns="http://www.w3.org/2000/svg">
<path d="M360.792 235.434C321.808 261.232 265.305 274.996 216.656 274.996C148.442 274.996 87.0323 252.344 40.5735 214.671C36.9234 211.708 40.1939 207.671 44.574 209.978C94.7122 236.168 156.706 251.925 220.744 251.925C263.932 251.925 311.442 243.902 355.127 227.255C361.726 224.738 367.245 231.135 360.792 235.434Z" fill="#FF9900"/>
<path d="M376.999 218.787C372.035 213.072 344.06 216.087 331.504 217.424C327.679 217.843 327.095 214.854 330.54 212.705C352.821 198.626 389.38 202.69 393.644 207.409C397.907 212.154 392.534 245.056 371.597 260.76C368.385 263.172 365.319 261.887 366.75 258.689C371.451 248.15 381.992 224.528 376.999 218.787Z" fill="#FF9900"/>
<path d="M48.8 196.6C35.6 196.6 25.4 191.933 18.2 182.6C11 173.267 7.4 160.067 7.4 143C7.4 125.8 11 112.533 18.2 103.2C25.4 93.8667 35.6 89.2 48.8 89.2C62 89.2 72.2 93.8667 79.4 103.2C86.6 112.533 90.2 125.8 90.2 143C90.2 160.067 86.6 173.267 79.4 182.6C72.2 191.933 62 196.6 48.8 196.6ZM48.8 175.8C53.7333 175.8 57.2667 173.2 59.4 168C61.6667 162.667 62.8 154.333 62.8 143C62.8 131.667 61.6667 123.333 59.4 118C57.2667 112.667 53.7333 110 48.8 110C43.8667 110 40.2667 112.667 38 118C35.8667 123.333 34.8 131.667 34.8 143C34.8 154.333 35.8667 162.667 38 168C40.2667 173.2 43.8667 175.8 48.8 175.8ZM163.456 194L161.256 185.2C158.19 188.533 154.656 191.133 150.656 193C146.79 194.867 142.856 195.8 138.856 195.8C128.056 195.8 119.656 191.2 113.656 182C107.79 172.8 104.856 159.933 104.856 143.4C104.856 126.333 107.923 113.067 114.056 103.6C120.19 94 128.656 89.2 139.456 89.2C142.523 89.2 145.99 90 149.856 91.6C153.856 93.2 157.256 95.2 160.056 97.6V46H187.456V194H163.456ZM148.056 175.4C152.056 175.4 156.056 174.067 160.056 171.4V114.2C155.523 111.133 151.123 109.6 146.856 109.6C141.656 109.6 137.923 112.267 135.656 117.6C133.39 122.8 132.256 131.2 132.256 142.8C132.256 154.133 133.523 162.4 136.056 167.6C138.59 172.8 142.59 175.4 148.056 175.4ZM211.619 194V91.8H239.019V194H211.619ZM225.419 75.2C220.485 75.2 216.552 73.8667 213.619 71.2C210.685 68.4 209.219 64.6667 209.219 60C209.219 55.3333 210.685 51.6667 213.619 49C216.552 46.2 220.485 44.8 225.419 44.8C230.219 44.8 234.085 46.2 237.019 49C239.952 51.6667 241.419 55.3333 241.419 60C241.419 64.6667 239.952 68.4 237.019 71.2C234.085 73.8667 230.219 75.2 225.419 75.2ZM311.367 194L308.967 184.8C306.701 188.267 303.434 191.133 299.167 193.4C294.901 195.533 290.567 196.6 286.167 196.6C277.901 196.6 271.367 193.933 266.567 188.6C261.767 183.133 259.367 175.667 259.367 166.2C259.367 156.2 262.301 148.333 268.167 142.6C274.034 136.733 281.967 133.8 291.967 133.8C296.101 133.8 301.234 134.6 307.367 136.2V127C307.367 120.067 306.434 115.4 304.567 113C302.834 110.467 299.501 109.2 294.567 109.2C286.567 109.2 276.767 111.333 265.167 115.6V97.4C269.034 94.8667 274.101 92.8667 280.367 91.4C286.634 89.9333 293.034 89.2 299.567 89.2C311.167 89.2 319.567 91.8667 324.767 97.2C329.967 102.4 332.567 110.8 332.567 122.4V194H311.367ZM294.167 177.4C298.567 177.4 302.967 175.267 307.367 171V151.4C304.434 150.467 300.967 150 296.967 150C293.101 150 290.101 151.267 287.967 153.8C285.967 156.2 284.967 159.733 284.967 164.4C284.967 168.4 285.767 171.6 287.367 174C289.101 176.267 291.367 177.4 294.167 177.4ZM348.945 194V174.6L390.345 112.8H350.545V91.8H419.145V111.2L377.745 173H419.945V194H348.945ZM473.8 196.6C460.6 196.6 450.4 191.933 443.2 182.6C436 173.267 432.4 160.067 432.4 143C432.4 125.8 436 112.533 443.2 103.2C450.4 93.8667 460.6 89.2 473.8 89.2C487 89.2 497.2 93.8667 504.4 103.2C511.6 112.533 515.2 125.8 515.2 143C515.2 160.067 511.6 173.267 504.4 182.6C497.2 191.933 487 196.6 473.8 196.6ZM473.8 175.8C478.733 175.8 482.267 173.2 484.4 168C486.667 162.667 487.8 154.333 487.8 143C487.8 131.667 486.667 123.333 484.4 118C482.267 112.667 478.733 110 473.8 110C468.867 110 465.267 112.667 463 118C460.867 123.333 459.8 131.667 459.8 143C459.8 154.333 460.867 162.667 463 168C465.267 173.2 468.867 175.8 473.8 175.8ZM586.056 194V126.8C586.056 120.933 585.256 116.667 583.656 114C582.056 111.333 579.323 110 575.456 110C571.323 110 566.79 111.6 561.856 114.8V194H534.456V91.8H556.856L559.056 101C569.723 93.1333 579.923 89.2 589.656 89.2C597.39 89.2 603.256 91.7333 607.256 96.8C611.39 101.867 613.456 109.267 613.456 119V194H586.056Z" fill="white"/>
</svg>
