<svg width="512" height="512" viewBox="0 0 512 512" fill="none" xmlns="http://www.w3.org/2000/svg">
<g clip-path="url(#clip0_14_30)">
<mask id="mask0_14_30" style="mask-type:luminance" maskUnits="userSpaceOnUse" x="0" y="0" width="512" height="512">
<path d="M512 0H0V512H512V0Z" fill="white"/>
</mask>
<g mask="url(#mask0_14_30)">
<path fill-rule="evenodd" clip-rule="evenodd" d="M256 0C114.677 0 0 114.677 0 256C0 397.323 114.677 512 256 512C397.323 512 512 397.323 512 256C512 114.677 397.323 0 256 0ZM256 10.6667C391.552 10.6667 501.333 120.437 501.333 256C501.333 391.563 391.552 501.333 256 501.333C120.448 501.333 10.6667 391.563 10.6667 256C10.6667 120.437 120.448 10.6667 256 10.6667ZM250.453 121.963C218.229 121.963 192 148.299 192 180.629C192 212.949 218.229 239.296 250.453 239.296C282.688 239.296 308.907 212.949 308.907 180.629C308.917 148.299 282.688 121.963 250.453 121.963ZM250.453 132.629C276.907 132.629 298.251 154.037 298.24 180.629C298.24 207.211 276.907 228.629 250.453 228.629C244.161 228.625 237.932 227.379 232.122 224.963C226.312 222.547 221.036 219.007 216.597 214.548C212.158 210.089 208.642 204.798 206.251 198.977C203.861 193.157 202.643 186.922 202.667 180.629C202.667 154.037 224.011 132.629 250.453 132.629ZM218.667 249.963C174.421 249.963 138.667 285.888 138.667 330.272V378.443C138.667 379.857 139.229 381.214 140.229 382.214C141.229 383.214 142.586 383.776 144 383.776H357.333C358.748 383.776 360.104 383.214 361.105 382.214C362.105 381.214 362.667 379.857 362.667 378.443V330.272C362.667 285.888 326.912 249.952 282.667 249.952L218.667 249.963ZM218.667 260.629H282.667C321.163 260.629 352 291.584 352 330.272V373.109H320V330.187C320 328.772 319.438 327.416 318.438 326.415C317.438 325.415 316.081 324.853 314.667 324.853C313.252 324.853 311.896 325.415 310.895 326.415C309.895 327.416 309.333 328.772 309.333 330.187V373.109H192V330.187C192 328.772 191.438 327.416 190.438 326.415C189.438 325.415 188.081 324.853 186.667 324.853C185.252 324.853 183.896 325.415 182.895 326.415C181.895 327.416 181.333 328.772 181.333 330.187V373.109H149.333V330.272C149.333 291.584 180.171 260.629 218.667 260.629Z" fill="white"/>
</g>
</g>
<defs>
<clipPath id="clip0_14_30">
<rect width="512" height="512" fill="white"/>
</clipPath>
</defs>
</svg>
